<mxfile host="Electron" agent="Mozilla/5.0 (Windows NT 10.0; Win64; x64) AppleWebKit/537.36 (KHTML, like Gecko) draw.io/24.7.5 Chrome/126.0.6478.183 Electron/31.3.0 Safari/537.36" version="24.7.5">
  <diagram name="Seite-1" id="QBLZULU6C8_MBZ-O-W6B">
    <mxGraphModel dx="609" dy="287" grid="1" gridSize="10" guides="1" tooltips="1" connect="1" arrows="1" fold="1" page="1" pageScale="1" pageWidth="827" pageHeight="1169" math="0" shadow="0">
      <root>
        <mxCell id="0" />
        <mxCell id="1" parent="0" />
        <mxCell id="sez-PSk2wfra1ML8Plk_-41" value="MCU" style="whiteSpace=wrap;html=1;aspect=fixed;strokeWidth=2;strokeColor=#1BA1E2;" vertex="1" parent="1">
          <mxGeometry x="80" y="320" width="80" height="80" as="geometry" />
        </mxCell>
        <mxCell id="sez-PSk2wfra1ML8Plk_-43" value="" style="shape=flexArrow;endArrow=classic;html=1;rounded=0;strokeWidth=2;strokeColor=#1BA1E2;" edge="1" parent="1">
          <mxGeometry width="50" height="50" relative="1" as="geometry">
            <mxPoint x="190" y="359.76" as="sourcePoint" />
            <mxPoint x="220" y="359.76" as="targetPoint" />
          </mxGeometry>
        </mxCell>
        <mxCell id="sez-PSk2wfra1ML8Plk_-44" value="" style="shape=flexArrow;endArrow=classic;html=1;rounded=0;strokeWidth=2;strokeColor=#1BA1E2;" edge="1" parent="1">
          <mxGeometry width="50" height="50" relative="1" as="geometry">
            <mxPoint x="350" y="359.76" as="sourcePoint" />
            <mxPoint x="380" y="359.76" as="targetPoint" />
          </mxGeometry>
        </mxCell>
        <mxCell id="sez-PSk2wfra1ML8Plk_-45" value="IC2" style="whiteSpace=wrap;html=1;aspect=fixed;strokeWidth=2;strokeColor=#1BA1E2;" vertex="1" parent="1">
          <mxGeometry x="240" y="320" width="80" height="80" as="geometry" />
        </mxCell>
        <mxCell id="sez-PSk2wfra1ML8Plk_-46" value="" style="shape=flexArrow;endArrow=classic;html=1;rounded=0;strokeWidth=2;strokeColor=#1BA1E2;" edge="1" parent="1">
          <mxGeometry width="50" height="50" relative="1" as="geometry">
            <mxPoint x="510" y="359.76" as="sourcePoint" />
            <mxPoint x="540" y="359.76" as="targetPoint" />
          </mxGeometry>
        </mxCell>
        <mxCell id="sez-PSk2wfra1ML8Plk_-47" value="SD1306" style="whiteSpace=wrap;html=1;aspect=fixed;strokeWidth=2;strokeColor=#1BA1E2;" vertex="1" parent="1">
          <mxGeometry x="400" y="320" width="80" height="80" as="geometry" />
        </mxCell>
        <mxCell id="sez-PSk2wfra1ML8Plk_-48" value="LCD" style="whiteSpace=wrap;html=1;aspect=fixed;strokeWidth=2;strokeColor=#1BA1E2;" vertex="1" parent="1">
          <mxGeometry x="560" y="320" width="80" height="80" as="geometry" />
        </mxCell>
      </root>
    </mxGraphModel>
  </diagram>
</mxfile>
